HIERARCHY
ROOT reference
{
  OFFSET -65.3212 -1.93545 -120.338
  CHANNELS 6 Xposition Yposition Zposition Zrotation Xrotation Yrotation
  JOINT Hips
  {
    OFFSET 0 78.7191 0
    CHANNELS 6 Xposition Yposition Zposition Zrotation Xrotation Yrotation
    JOINT Chest
    {
      OFFSET 0 8.7983 -4.7612
      CHANNELS 6 Xposition Yposition Zposition Zrotation Xrotation Yrotation
      JOINT Chest2
      {
        OFFSET 0 8.0291 0.4195
        CHANNELS 6 Xposition Yposition Zposition Zrotation Xrotation Yrotation
        JOINT Chest3
        {
          OFFSET 0 9.9351 -2.2114
          CHANNELS 6 Xposition Yposition Zposition Zrotation Xrotation Yrotation
          JOINT Neck
          {
            OFFSET 0 22.3885 -0.4656
            CHANNELS 6 Xposition Yposition Zposition Zrotation Xrotation Yrotation
            JOINT Head
            {
              OFFSET -0.0001 12.643 3.4389
              CHANNELS 6 Xposition Yposition Zposition Zrotation Xrotation Yrotation
              End Site
              {
                OFFSET 0.0001 17.6655 0.5274
              }
            }
          }
          JOINT LeftCollar
          {
            OFFSET 2.2603 21.606 7.4023
            CHANNELS 6 Xposition Yposition Zposition Zrotation Xrotation Yrotation
            JOINT LeftShoulder
            {
              OFFSET 13.5163 -1.1332 -5.0146
              CHANNELS 6 Xposition Yposition Zposition Zrotation Xrotation Yrotation
              JOINT LeftElbow
              {
                OFFSET -0.0995 -28.05 -0.2431
                CHANNELS 6 Xposition Yposition Zposition Zrotation Xrotation Yrotation
                JOINT LeftWrist
                {
                  OFFSET 0.0679 -23.3996 -0.1402
                  CHANNELS 6 Xposition Yposition Zposition Zrotation Xrotation Yrotation
                  JOINT LeftFinger1
                  {
                    OFFSET 0.7932 -9.069 2.5189
                    CHANNELS 6 Xposition Yposition Zposition Zrotation Xrotation Yrotation
                    JOINT LeftFinger11
                    {
                      OFFSET -0.8272 -3.3923 0.5977
                      CHANNELS 6 Xposition Yposition Zposition Zrotation Xrotation Yrotation
                      JOINT LeftFinger12
                      {
                        OFFSET -0.5649 -2.3158 0.4082
                        CHANNELS 6 Xposition Yposition Zposition Zrotation Xrotation Yrotation
                        End Site
                        {
                          OFFSET -0.4919 -1.6479 0.2673
                        }
                      }
                    }
                  }
                  JOINT LeftFinger2
                  {
                    OFFSET 0.9159 -9.2044 0.2193
                    CHANNELS 6 Xposition Yposition Zposition Zrotation Xrotation Yrotation
                    JOINT LeftFinger21
                    {
                      OFFSET 0.0117 -4.1944 -0.0248
                      CHANNELS 6 Xposition Yposition Zposition Zrotation Xrotation Yrotation
                      JOINT LeftFinger22
                      {
                        OFFSET 0.0071 -2.3249 -0.0142
                        CHANNELS 6 Xposition Yposition Zposition Zrotation Xrotation Yrotation
                        End Site
                        {
                          OFFSET -0.1475 -2.0882 0.0028
                        }
                      }
                    }
                  }
                  JOINT LeftFinger3
                  {
                    OFFSET 0.6113 -8.7231 -2.0637
                    CHANNELS 6 Xposition Yposition Zposition Zrotation Xrotation Yrotation
                    JOINT LeftFinger31
                    {
                      OFFSET -0.1927 -3.8059 -0.2383
                      CHANNELS 6 Xposition Yposition Zposition Zrotation Xrotation Yrotation
                      JOINT LeftFinger32
                      {
                        OFFSET -0.1091 -2.1688 -0.1362
                        CHANNELS 6 Xposition Yposition Zposition Zrotation Xrotation Yrotation
                        End Site
                        {
                          OFFSET -0.2358 -1.9176 -0.0906
                        }
                      }
                    }
                  }
                  JOINT LeftFinger4
                  {
                    OFFSET -0.6151 -8.0947 -3.5641
                    CHANNELS 6 Xposition Yposition Zposition Zrotation Xrotation Yrotation
                    JOINT LeftFinger41
                    {
                      OFFSET -0.4882 -2.341 -0.6462
                      CHANNELS 6 Xposition Yposition Zposition Zrotation Xrotation Yrotation
                      JOINT LeftFinger42
                      {
                        OFFSET -0.3575 -1.7167 -0.4742
                        CHANNELS 6 Xposition Yposition Zposition Zrotation Xrotation Yrotation
                        End Site
                        {
                          OFFSET -0.4187 -1.5237 -0.3496
                        }
                      }
                    }
                  }
                  JOINT LeftFinger0
                  {
                    OFFSET -1.42 -1.8761 1.4223
                    CHANNELS 6 Xposition Yposition Zposition Zrotation Xrotation Yrotation
                    JOINT LeftFinger01
                    {
                      OFFSET -1.1471 -3.4929 2.6334
                      CHANNELS 6 Xposition Yposition Zposition Zrotation Xrotation Yrotation
                      JOINT LeftFinger02
                      {
                        OFFSET -0.823 -2.3 1.6571
                        CHANNELS 6 Xposition Yposition Zposition Zrotation Xrotation Yrotation
                        End Site
                        {
                          OFFSET -0.5822 -1.6914 1.1582
                        }
                      }
                    }
                  }
                }
              }
            }
          }
          JOINT RightCollar
          {
            OFFSET -2.2603 21.606 7.4023
            CHANNELS 6 Xposition Yposition Zposition Zrotation Xrotation Yrotation
            JOINT RightShoulder
            {
              OFFSET -13.5187 -1.1334 -5.0155
              CHANNELS 6 Xposition Yposition Zposition Zrotation Xrotation Yrotation
              JOINT RightElbow
              {
                OFFSET 0.0994 -28.0499 -0.2431
                CHANNELS 6 Xposition Yposition Zposition Zrotation Xrotation Yrotation
                JOINT RightWrist
                {
                  OFFSET -0.0679 -23.3996 -0.1402
                  CHANNELS 6 Xposition Yposition Zposition Zrotation Xrotation Yrotation
                  JOINT RightFinger1
                  {
                    OFFSET -0.7932 -9.0691 2.5189
                    CHANNELS 6 Xposition Yposition Zposition Zrotation Xrotation Yrotation
                    JOINT RightFinger11
                    {
                      OFFSET 0.8272 -3.3923 0.5977
                      CHANNELS 6 Xposition Yposition Zposition Zrotation Xrotation Yrotation
                      JOINT RightFinger12
                      {
                        OFFSET 0.565 -2.3158 0.4082
                        CHANNELS 6 Xposition Yposition Zposition Zrotation Xrotation Yrotation
                        End Site
                        {
                          OFFSET 0.4919 -1.6479 0.2673
                        }
                      }
                    }
                  }
                  JOINT RightFinger2
                  {
                    OFFSET -0.916 -9.2044 0.2193
                    CHANNELS 6 Xposition Yposition Zposition Zrotation Xrotation Yrotation
                    JOINT RightFinger21
                    {
                      OFFSET -0.0117 -4.1944 -0.0248
                      CHANNELS 6 Xposition Yposition Zposition Zrotation Xrotation Yrotation
                      JOINT RightFinger22
                      {
                        OFFSET -0.0071 -2.3249 -0.0142
                        CHANNELS 6 Xposition Yposition Zposition Zrotation Xrotation Yrotation
                        End Site
                        {
                          OFFSET 0.1475 -2.0882 0.0028
                        }
                      }
                    }
                  }
                  JOINT RightFinger3
                  {
                    OFFSET -0.6113 -8.7231 -2.0637
                    CHANNELS 6 Xposition Yposition Zposition Zrotation Xrotation Yrotation
                    JOINT RightFinger31
                    {
                      OFFSET 0.1927 -3.8059 -0.2383
                      CHANNELS 6 Xposition Yposition Zposition Zrotation Xrotation Yrotation
                      JOINT RightFinger32
                      {
                        OFFSET 0.1091 -2.1688 -0.1362
                        CHANNELS 6 Xposition Yposition Zposition Zrotation Xrotation Yrotation
                        End Site
                        {
                          OFFSET 0.2358 -1.9176 -0.0906
                        }
                      }
                    }
                  }
                  JOINT RightFinger4
                  {
                    OFFSET 0.6151 -8.0947 -3.564
                    CHANNELS 6 Xposition Yposition Zposition Zrotation Xrotation Yrotation
                    JOINT RightFinger41
                    {
                      OFFSET 0.4882 -2.341 -0.6462
                      CHANNELS 6 Xposition Yposition Zposition Zrotation Xrotation Yrotation
                      JOINT RightFinger42
                      {
                        OFFSET 0.3574 -1.7166 -0.4742
                        CHANNELS 6 Xposition Yposition Zposition Zrotation Xrotation Yrotation
                        End Site
                        {
                          OFFSET 0.4187 -1.5237 -0.3496
                        }
                      }
                    }
                  }
                  JOINT RightFinger0
                  {
                    OFFSET 1.4199 -1.8761 1.4221
                    CHANNELS 6 Xposition Yposition Zposition Zrotation Xrotation Yrotation
                    JOINT RightFinger01
                    {
                      OFFSET 1.1472 -3.4929 2.6336
                      CHANNELS 6 Xposition Yposition Zposition Zrotation Xrotation Yrotation
                      JOINT RightFinger02
                      {
                        OFFSET 0.8229 -2.3 1.6571
                        CHANNELS 6 Xposition Yposition Zposition Zrotation Xrotation Yrotation
                        End Site
                        {
                          OFFSET 0.5822 -1.6914 1.1582
                        }
                      }
                    }
                  }
                }
              }
            }
          }
        }
      }
    }
    JOINT RightHip
    {
      OFFSET -9.412 3.9771 -0.7758
      CHANNELS 6 Xposition Yposition Zposition Zrotation Xrotation Yrotation
      JOINT RightKnee
      {
        OFFSET -0.7531 -40.938 0
        CHANNELS 6 Xposition Yposition Zposition Zrotation Xrotation Yrotation
        JOINT RightAnkle
        {
          OFFSET 0 -40.1986 0
          CHANNELS 6 Xposition Yposition Zposition Zrotation Xrotation Yrotation
          JOINT RightToe
          {
            OFFSET 0 -4.4182 9.239
            CHANNELS 6 Xposition Yposition Zposition Zrotation Xrotation Yrotation
            End Site
            {
              OFFSET 0 0 6.1981
            }
          }
        }
      }
    }
    JOINT LeftHip
    {
      OFFSET 9.4119 3.9773 -0.7758
      CHANNELS 6 Xposition Yposition Zposition Zrotation Xrotation Yrotation
      JOINT LeftKnee
      {
        OFFSET 0.7532 -40.9383 0
        CHANNELS 6 Xposition Yposition Zposition Zrotation Xrotation Yrotation
        JOINT LeftAnkle
        {
          OFFSET 0 -40.1986 0
          CHANNELS 6 Xposition Yposition Zposition Zrotation Xrotation Yrotation
          JOINT LeftToe
          {
            OFFSET 0 -4.4182 9.239
            CHANNELS 6 Xposition Yposition Zposition Zrotation Xrotation Yrotation
            End Site
            {
              OFFSET 0 0 6.1981
            }
          }
        }
      }
    }
  }
}
MOTION
Frames:	4
Frame Time:	0.0333333
-10.0203 26.1763 12.5651 0 0 -0 5.32907e-015 78.7191 0 0.991476 36.6236 -106.887 -7.10543e-015 8.7983 -4.7612 5.04843 2.47565 -3.92039 1.42109e-014 8.0291 0.4195 10.267 4.5906 -8.05355 -3.55271e-015 9.9351 -2.2114 10.267 4.59061 -8.05357 1.77636e-015 22.3885 -0.4656 -0.353454 7.58153 -8.70917 -0.0001 12.643 3.4389 26.0442 5.26827 1.31221 2.2603 21.606 7.4023 13.2668 -1.66142 -30.4509 13.5163 -1.1332 -5.0146 8.85193 -67.634 -8.75098 -0.0995 -28.05 -0.2431 -21.6682 -46.6538 -2.7295 0.0679 -23.3996 -0.1402 -6.94303 -23.1974 55.3938 0.7932 -9.069 2.5189 27.2492 5.74527 -4.53203 -0.8272 -3.3923 0.5977 -37.131 21.318 5.22858 -0.5649 -2.3158 0.4082 -42.9782 23.9137 7.20586 0.9159 -9.2044 0.2193 9.44413 6.46509 -4.35296 0.0117 -4.1944 -0.0248 -42.7841 24.7472 5.54523 0.0071 -2.3249 -0.0142 -34.8933 20.9274 3.16327 0.6113 -8.7231 -2.0637 -8.44582 7.77091 5.06848 -0.1927 -3.8059 -0.2383 -28.1884 19.1878 1.07879 -0.1091 -2.1688 -0.1362 -29.3468 19.9042 1.32327 -0.6151 -8.0947 -3.5641 -17.1731 6.68976 8.20157 -0.4882 -2.341 -0.6462 -22.3112 15.3795 -0.711701 -0.3575 -1.7167 -0.4742 -22.251 15.3393 -0.718111 -1.42 -1.8761 1.4223 -4.03788 2.96287 -52.4796 -1.1471 -3.4929 2.6334 -0.679357 -0.765439 0.171361 -0.823 -2.3 1.6571 8.53297 10.6973 -3.07905 -2.2603 21.606 7.4023 -24.6887 0.00156121 7.05434 -13.5187 -1.1334 -5.0155 -103.113 -38.5989 -57.3895 0.0994 -28.0499 -0.2431 -5.78672 -21.521 4.41735 -0.0679 -23.3996 -0.1402 -14.3253 -12.0705 -118.484 -0.7932 -9.0691 2.5189 -26.3168 9.867 9.08457 0.8272 -3.3923 0.5977 39.4242 12.0338 -4.97709 0.565 -2.3158 0.4082 38.7304 11.8652 -4.8227 -0.916 -9.2044 0.2193 -2.2335 10.2523 5.03866 -0.0117 -4.1944 -0.0248 52.3753 15.6206 -6.40195 -0.0071 -2.3249 -0.0142 44.0892 13.7161 -4.4863 -0.6113 -8.7231 -2.0637 15.0073 7.58695 -5.70557 0.1927 -3.8059 -0.2383 37.2883 13.8498 -2.532 0.1091 -2.1688 -0.1362 38.5715 14.2637 -2.77354 0.6151 -8.0947 -3.564 23.054 4.37555 -8.90254 0.4882 -2.341 -0.6462 30.7534 11.5468 -0.514526 0.3574 -1.7166 -0.4742 30.6849 11.5224 -0.506051 1.4199 -1.8761 1.4221 7.91155 0.88028 52.6243 1.1472 -3.4929 2.6336 -0.671216 1.52911 0.48902 0.8229 -2.3 1.6571 -4.02432 8.62951 3.04557 -9.412 3.9771 -0.7758 10.443 -67.5039 46.3902 -0.7531 -40.938 0 130.831 75.448 -128.309 0 -40.1986 3.55271e-015 2.47239 -7.98818 -2.22177 -1.42109e-014 -4.4182 9.239 0.866057 5.88778 -0.382577 9.4119 3.9773 -0.7758 7.30698 -3.30826 -5.02121 0.7532 -40.9383 3.55271e-015 0.178836 0.631534 -0.930094 3.55271e-015 -40.1986 3.55271e-015 -12.3707 3.24059 -2.15544 0 -4.4182 9.239 -1.54133 11.3714 0.153452 
-12.5949 26.615 14.6598 0 0 -0 5.32907e-015 78.7191 0 7.40299 36.3865 -115.398 7.10543e-015 8.7983 -4.7612 5.27514 2.23109 -4.22605 0 8.0291 0.4195 10.7107 4.05798 -8.64775 0 9.9351 -2.2114 10.7107 4.05797 -8.64779 0 22.3885 -0.4656 -0.262827 10.6406 -6.5059 -0.0001 12.643 3.4389 26.0373 5.02816 2.76499 2.2603 21.606 7.4023 12.8181 -1.67809 -30.64 13.5163 -1.1332 -5.0146 9.0896 -67.305 -8.67304 -0.0995 -28.05 -0.2431 -23.1307 -46.0616 -4.29358 0.0679 -23.3996 -0.1402 -7.00495 -24.7165 56.8718 0.7932 -9.069 2.5189 27.2492 5.7453 -4.53202 -0.8272 -3.3923 0.5977 -37.131 21.318 5.22858 -0.5649 -2.3158 0.4082 -42.9782 23.9137 7.20592 0.9159 -9.2044 0.2193 9.44414 6.46514 -4.35292 0.0117 -4.1944 -0.0248 -42.7841 24.7472 5.54522 0.0071 -2.3249 -0.0142 -34.8933 20.9273 3.16305 0.6113 -8.7231 -2.0637 -8.44583 7.77093 5.0685 -0.1927 -3.8059 -0.2383 -28.1884 19.1877 1.07882 -0.1091 -2.1688 -0.1362 -29.3468 19.9042 1.32329 -0.6151 -8.0947 -3.5641 -17.173 6.68984 8.20146 -0.4882 -2.341 -0.6462 -22.3112 15.3794 -0.711919 -0.3575 -1.7167 -0.4742 -22.251 15.3394 -0.718065 -1.42 -1.8761 1.4223 -4.03787 2.96287 -52.4796 -1.1471 -3.4929 2.6334 -0.679371 -0.765474 0.17137 -0.823 -2.3 1.6571 8.53294 10.6973 -3.07897 -2.2603 21.606 7.4023 -22.6297 0.0239361 7.08644 -13.5187 -1.1334 -5.0155 -104.77 -37.988 -57.24 0.0994 -28.0499 -0.2431 -5.23984 -22.7092 7.81663 -0.0679 -23.3996 -0.1402 -14.8098 -11.9866 -122.769 -0.7932 -9.0691 2.5189 -26.3168 9.86704 9.08441 0.8272 -3.3923 0.5977 39.4242 12.0338 -4.97719 0.565 -2.3158 0.4082 38.7304 11.8652 -4.82268 -0.916 -9.2044 0.2193 -2.23348 10.2523 5.03865 -0.0117 -4.1944 -0.0248 52.3753 15.6206 -6.40185 -0.0071 -2.3249 -0.0142 44.0892 13.7161 -4.4863 -0.6113 -8.7231 -2.0637 15.0074 7.58702 -5.70558 0.1927 -3.8059 -0.2383 37.2883 13.8497 -2.53192 0.1091 -2.1688 -0.1362 38.5715 14.2637 -2.77352 0.6151 -8.0947 -3.564 23.054 4.37549 -8.90251 0.4882 -2.341 -0.6462 30.7535 11.5469 -0.514538 0.3574 -1.7166 -0.4742 30.6849 11.5224 -0.505994 1.4199 -1.8761 1.4221 7.91156 0.88026 52.6243 1.1472 -3.4929 2.6336 -0.67122 1.52911 0.489016 0.8229 -2.3 1.6571 -4.02431 8.62951 3.04558 -9.412 3.9771 -0.7758 7.48297 -68.5807 43.0233 -0.7531 -40.938 0 141.278 72.3946 -139.758 1.42109e-014 -40.1986 -2.66454e-015 0.80799 -10.4598 -2.58545 1.42109e-014 -4.4182 9.239 0.917335 6.22644 -0.407385 9.4119 3.9773 -0.7758 7.35374 -4.30107 -3.39388 0.7532 -40.9383 3.55271e-015 0.187007 1.4033 -1.03324 0 -40.1986 -3.55271e-015 -13.1807 2.73486 -1.79334 0 -4.4182 9.239 -1.52277 11.2383 0.149814 
-15.4291 27.0212 16.336 0 0 -0 5.32907e-015 78.7191 0 13.7606 35.2281 -123.683 0 8.7983 -4.7612 5.42379 1.99222 -4.75195 0 8.0291 0.4195 11.002 3.5196 -9.678 0 9.9351 -2.2114 11.002 3.51961 -9.67803 1.77636e-015 22.3885 -0.4656 -0.13437 14.3274 -3.4609 -0.0001 12.643 3.4389 26.1214 4.19179 4.36744 2.2603 21.606 7.4023 12.7109 -1.60812 -29.8611 13.5163 -1.1332 -5.0146 8.4687 -67.0376 -9.32101 -0.0995 -28.05 -0.2431 -23.7782 -44.8698 -5.46676 0.0679 -23.3996 -0.1402 -7.26005 -26.5021 58.4864 0.7932 -9.069 2.5189 27.2492 5.7453 -4.532 -0.8272 -3.3923 0.5977 -37.131 21.318 5.22864 -0.5649 -2.3158 0.4082 -42.9782 23.9136 7.20597 0.9159 -9.2044 0.2193 9.44412 6.46512 -4.35284 0.0117 -4.1944 -0.0248 -42.7841 24.7471 5.54529 0.0071 -2.3249 -0.0142 -34.8933 20.9273 3.16303 0.6113 -8.7231 -2.0637 -8.44582 7.77093 5.06853 -0.1927 -3.8059 -0.2383 -28.1884 19.1877 1.07881 -0.1091 -2.1688 -0.1362 -29.3468 19.9041 1.32334 -0.6151 -8.0947 -3.5641 -17.173 6.68977 8.20148 -0.4882 -2.341 -0.6462 -22.3112 15.3796 -0.711926 -0.3575 -1.7167 -0.4742 -22.251 15.3392 -0.718115 -1.42 -1.8761 1.4223 -4.03786 2.96287 -52.4796 -1.1471 -3.4929 2.6334 -0.679406 -0.765434 0.171405 -0.822999 -2.3 1.6571 8.53296 10.6973 -3.07913 -2.2603 21.606 7.4023 -20.1286 0.0159363 8.18349 -13.5187 -1.1334 -5.0155 -106.537 -38.0062 -57.5904 0.0994 -28.0499 -0.2431 -5.47423 -22.6821 9.99692 -0.0679 -23.3996 -0.1402 -14.7017 -12.9673 -125.199 -0.7932 -9.0691 2.5189 -26.3168 9.86707 9.08443 0.8272 -3.3923 0.5977 39.4242 12.0338 -4.97718 0.565 -2.3158 0.4082 38.7303 11.8652 -4.82266 -0.916 -9.2044 0.2193 -2.2335 10.2523 5.03866 -0.0117 -4.1944 -0.0248 52.3753 15.6205 -6.40199 -0.0071 -2.3249 -0.0142 44.0892 13.7161 -4.48629 -0.6113 -8.7231 -2.0637 15.0073 7.58702 -5.70557 0.1927 -3.8059 -0.2383 37.2883 13.8497 -2.53185 0.1091 -2.1688 -0.1362 38.5715 14.2637 -2.77351 0.6151 -8.0947 -3.564 23.054 4.37556 -8.90245 0.4882 -2.341 -0.6462 30.7534 11.5468 -0.514501 0.3574 -1.7166 -0.4742 30.6849 11.5224 -0.506133 1.4199 -1.8761 1.4221 7.91155 0.880323 52.6244 1.1472 -3.4929 2.6336 -0.671208 1.5291 0.489012 0.8229 -2.3 1.6571 -4.02431 8.62949 3.04558 -9.412 3.9771 -0.7758 3.54875 -69.3556 38.5404 -0.7531 -40.938 7.10543e-015 148.775 69.7526 -147.801 1.42109e-014 -40.1986 0 -0.358902 -12.6867 -3.26819 -1.42109e-014 -4.4182 9.239 1.03083 6.97107 -0.463134 9.4119 3.9773 -0.7758 7.86035 -4.98501 -1.69139 0.7532 -40.9383 0 0.196839 1.90241 -1.06736 0 -40.1986 0 -13.36 2.85326 -2.06346 0 -4.4182 9.239 -1.48135 10.94 0.141847 
-18.484 27.3171 17.6085 0 0 -0 3.55271e-015 78.7191 0 19.5994 33.3366 -131.903 -7.10543e-015 8.7983 -4.7612 5.56684 1.82098 -5.16737 0 8.0291 0.4195 11.2815 3.12497 -10.493 0 9.9351 -2.2114 11.2816 3.12498 -10.493 -3.55271e-015 22.3885 -0.4656 -0.0110997 16.893 -0.66615 -0.0001 12.643 3.4389 25.9333 3.56842 5.70226 2.2603 21.606 7.4023 13.2256 -1.56787 -28.795 13.5163 -1.1332 -5.0146 5.15262 -67.2094 -12.4665 -0.0995 -28.05 -0.2431 -22.9091 -43.562 -5.82784 0.0679 -23.3996 -0.1402 -7.83501 -28.4532 60.1079 0.7932 -9.069 2.5189 27.2492 5.74532 -4.53191 -0.8272 -3.3923 0.5977 -37.131 21.318 5.22873 -0.5649 -2.3158 0.4082 -42.9782 23.9137 7.20585 0.9159 -9.2044 0.2193 9.44417 6.46512 -4.353 0.0117 -4.1944 -0.0248 -42.7842 24.7472 5.54541 0.0071 -2.3249 -0.0142 -34.8933 20.9272 3.16298 0.6113 -8.7231 -2.0637 -8.44584 7.77088 5.06864 -0.1927 -3.8059 -0.2383 -28.1884 19.1878 1.07882 -0.1091 -2.1688 -0.1362 -29.3468 19.9041 1.32318 -0.6151 -8.0947 -3.5641 -17.173 6.68979 8.20151 -0.4882 -2.341 -0.6462 -22.3112 15.3796 -0.711925 -0.3575 -1.7167 -0.4742 -22.2511 15.3392 -0.718114 -1.42 -1.8761 1.4223 -4.03787 2.96285 -52.4795 -1.1471 -3.4929 2.6334 -0.679412 -0.765406 0.171503 -0.823 -2.3 1.6571 8.53298 10.6972 -3.07914 -2.2603 21.606 7.4023 -17.5238 0.0102527 9.21809 -13.5187 -1.1334 -5.0155 -108.522 -37.7489 -58.5532 0.0994 -28.0499 -0.2431 -4.99779 -22.5389 10.4735 -0.0679 -23.3996 -0.1402 -14.3227 -14.4343 -125.234 -0.7932 -9.0691 2.5189 -26.3168 9.86701 9.08446 0.8272 -3.3923 0.5977 39.4242 12.0338 -4.9772 0.565 -2.3158 0.4082 38.7303 11.8652 -4.82259 -0.916 -9.2044 0.2193 -2.23349 10.2523 5.03867 -0.0117 -4.1944 -0.0248 52.3753 15.6205 -6.40197 -0.0071 -2.3249 -0.0142 44.0892 13.7161 -4.48624 -0.6113 -8.7231 -2.0637 15.0073 7.58704 -5.7055 0.1927 -3.8059 -0.2383 37.2883 13.8497 -2.53199 0.1091 -2.1688 -0.1362 38.5715 14.2637 -2.77349 0.6151 -8.0947 -3.564 23.054 4.37547 -8.90254 0.4882 -2.341 -0.6462 30.7535 11.5468 -0.514505 0.3574 -1.7166 -0.4742 30.6849 11.5224 -0.506145 1.4199 -1.8761 1.4221 7.91155 0.880298 52.6244 1.1472 -3.4929 2.6336 -0.671213 1.52911 0.489017 0.8229 -2.3 1.6571 -4.02432 8.6295 3.04559 -9.412 3.9771 -0.7758 0.0303267 -69.2075 34.0809 -0.7531 -40.938 -7.10543e-015 153.514 67.241 -152.815 0 -40.1986 8.88178e-015 -1.08309 -14.2278 -4.14029 1.42109e-014 -4.4182 9.239 1.01829 6.88915 -0.456925 9.4119 3.9773 -0.7758 8.76355 -5.17498 -1.17548 0.7532 -40.9383 3.55271e-015 0.197929 1.8821 -0.982409 3.55271e-015 -40.1986 0 -12.2538 2.97154 -1.96599 -3.55271e-015 -4.4182 9.239 -1.50428 11.1052 0.146199 
